# xmcd
# Track frame offsets:
# 187
# 11795
# 26837
# 41537
# 56982
# 73952
# 86255
# 99660
# 111742
# 124555
# 137782
# 150515
# 165097
# 185020
# 201200
# 212745
#
# Disc length: 3025 seconds
# Revision: 0
# Processed by: cddbd v1.4PL0 Copyright (c) Steve Scherf et al.
# Submitted via: VisiTrax 2.9.5.180 - For more info visit www.synapsa.com
#
DISCID=e60bcf10
DTITLE=George Strait - Holding my own
DYEAR=1993
DGENRE=
TTITLE0=You're right I'm wrong
TTITLE1=Holding my own
TTITLE2=Gone as a girl can get
TTITLE3=So much like my dad
TTITLE4=Trains make me lonesome
TTITLE5=All of me (loves all of you)
TTITLE6=Wonderland of love
TTITLE7=Faults and all
TTITLE8=It's alright with me
TTITLE9=Here we go again
TTITLE10=Someone had to teach you
TTITLE11=Heaven must be wondering where you are
TTITLE12=Lonesome rodeo cowboy
TTITLE13=Drinking champagne
TTITLE14=We're supposed to do that now and then
TTITLE15=Love without end, amen
EXTD=
EXTT0=
EXTT1=
EXTT2=
EXTT3=
EXTT4=
EXTT5=
EXTT6=
EXTT7=
EXTT8=
EXTT9=
EXTT10=
EXTT11=
EXTT12=
EXTT13=
EXTT14=
EXTT15=
PLAYORDER=
